<?xml version="1.0" standalone="no"?>
<!DOCTYPE svg PUBLIC "-//W3C//DTD SVG 20010904//EN"
 "http://www.w3.org/TR/2001/REC-SVG-20010904/DTD/svg10.dtd">
<svg version="1.0" xmlns="http://www.w3.org/2000/svg"
 width="600.000000pt" height="600.000000pt" viewBox="0 0 600.000000 600.000000"
 preserveAspectRatio="xMidYMid meet">
<metadata>
Created by potrace 1.14, written by Peter Selinger 2001-2017
</metadata>
<g transform="translate(0.000000,600.000000) scale(0.100000,-0.100000)"
fill="#000000" stroke="none">
<path d="M4126 5972 c5 -4 32 -26 59 -47 125 -98 342 -321 471 -483 420 -528
784 -1345 884 -1987 27 -171 36 -394 21 -515 -14 -109 -46 -242 -67 -279 -9
-15 -13 -18 -9 -7 25 82 12 416 -26 648 -35 215 -106 440 -151 483 -12 11 -17
13 -11 5 6 -8 22 -60 36 -115 83 -319 75 -760 -20 -1069 -17 -55 -22 -61 -72
-88 -29 -16 -56 -27 -58 -24 -3 2 4 44 16 93 31 133 52 276 42 286 -13 13 -22
-8 -37 -85 -18 -95 -59 -226 -83 -265 -16 -26 -131 -103 -154 -103 -4 0 -2 11
2 24 5 13 17 84 25 157 9 74 19 151 21 172 10 71 -16 35 -56 -78 -49 -141
-108 -257 -167 -331 -54 -66 -89 -90 -150 -100 l-43 -7 29 44 c87 128 174 443
202 729 6 63 15 194 19 290 6 126 16 209 35 295 31 147 49 334 40 436 -6 70
-4 79 15 98 11 11 21 27 21 35 0 7 10 17 23 21 21 8 21 8 -5 12 -22 3 -28 10
-28 29 0 14 -11 35 -24 48 -19 17 -29 45 -46 127 -11 57 -30 138 -41 179 -22
81 -86 220 -100 220 -5 0 -1 -17 10 -37 41 -82 130 -436 117 -469 -9 -22 -36
-16 -73 16 -46 41 -115 44 -147 7 -40 -48 3 -233 61 -260 18 -8 31 -4 74 24
59 38 52 51 -11 19 -32 -16 -45 -19 -55 -10 -23 19 -56 135 -53 182 3 39 6 43
32 46 39 5 68 -4 94 -28 31 -29 29 -60 -3 -60 -23 0 -29 -8 -22 -27 1 -5 4 -7
7 -6 3 1 13 5 23 8 13 5 17 2 17 -13 0 -28 10 -52 22 -52 5 0 9 21 8 48 -1 26
-1 52 -1 58 1 17 48 26 72 14 17 -10 20 -19 17 -63 -3 -50 -4 -52 -33 -55 -49
-5 -64 -14 -35 -21 l25 -7 -1 -195 c-2 -225 -16 -309 -90 -540 -62 -192 -118
-300 -213 -409 l-30 -35 34 98 c70 197 115 526 101 743 -6 100 -32 218 -36
164 -1 -17 -9 -3 -26 45 -53 152 -171 372 -305 568 -158 230 -210 296 -352
443 -109 113 -177 160 -163 111 179 -610 202 -1247 61 -1712 -56 -183 -125
-313 -211 -398 -65 -65 -77 -66 -49 -5 58 129 101 326 114 533 14 218 -9 489
-39 470 -4 -3 -6 -60 -3 -127 4 -90 1 -149 -11 -218 -43 -242 -175 -519 -340
-712 -76 -89 -68 -109 10 -25 154 164 280 410 349 682 l15 60 -5 -116 c-11
-252 -83 -529 -158 -606 -23 -25 -27 -33 -15 -33 9 0 20 4 23 10 3 5 27 19 53
30 61 27 104 68 163 158 45 69 129 261 129 297 0 9 5 13 10 10 6 -3 10 -2 10
3 0 5 16 30 35 55 l35 46 39 -17 c34 -15 38 -19 29 -37 -11 -20 -11 -20 11 -1
11 11 21 15 21 10 0 -5 -13 -21 -30 -36 -18 -15 -30 -36 -30 -50 0 -44 74 -93
116 -78 30 12 74 68 74 96 0 34 -39 58 -74 44 -31 -11 -50 -5 -42 15 3 8 0 16
-7 18 -19 7 73 97 99 97 12 0 47 -13 78 -29 l56 -30 0 38 c0 21 -6 59 -14 85
-13 41 -13 48 0 53 25 9 119 -4 154 -22 l32 -16 -6 -72 c-4 -40 -9 -90 -12
-112 -5 -37 -4 -39 10 -20 9 11 20 25 25 31 37 44 81 181 81 252 0 46 -14 61
-63 69 -34 5 -35 7 -30 38 4 27 2 34 -15 40 -29 9 -57 -8 -71 -43 -11 -27 -17
-30 -80 -36 -38 -3 -87 -12 -110 -20 l-41 -15 0 40 c0 43 -20 60 -49 42 -20
-12 -50 -71 -51 -100 0 -16 -16 -30 -65 -56 l-65 -35 6 52 c6 51 30 86 60 86
8 0 14 4 14 10 0 6 -9 6 -26 0 -14 -6 -27 -10 -28 -10 -2 0 -1 96 2 214 3 128
0 272 -7 358 -15 175 -60 444 -99 596 -16 62 -26 111 -23 110 11 -5 174 -181
262 -283 173 -201 438 -663 521 -908 l31 -92 -6 -185 c-7 -247 -53 -494 -121
-654 -21 -51 -21 -51 17 -22 19 15 36 26 38 26 2 0 2 -71 -1 -157 -6 -154 -7
-160 -38 -221 -40 -77 -80 -122 -196 -220 -105 -88 -436 -336 -475 -357 -15
-7 -55 -21 -90 -30 -67 -17 -92 -14 -211 21 -25 8 -93 25 -152 39 -59 14 -176
54 -264 90 -86 36 -162 64 -168 62 -6 -2 6 -12 26 -22 20 -10 34 -23 31 -28
-3 -6 -1 -7 5 -3 7 4 39 -19 76 -53 35 -33 87 -76 115 -96 42 -31 50 -41 45
-59 -4 -11 -12 -24 -18 -28 -6 -4 -7 -8 -2 -8 5 0 1 -9 -9 -20 -10 -11 -24
-20 -32 -20 -8 0 -11 -5 -8 -10 11 -18 -6 -52 -22 -45 -21 8 -51 -29 -164
-197 -91 -137 -92 -138 -130 -138 -20 0 -58 -9 -84 -20 -50 -21 -66 -25 -63
-12 1 4 -38 45 -86 92 -49 47 -108 111 -131 142 -31 41 -46 54 -52 45 -5 -6
-31 -59 -58 -117 -46 -100 -70 -139 -78 -129 -32 36 -76 102 -72 108 2 5 31
18 63 29 50 19 65 31 107 86 27 36 52 63 57 60 4 -3 8 1 8 8 0 7 23 48 51 91
33 53 55 77 64 73 11 -4 12 0 5 19 -7 18 -4 36 11 71 l21 47 54 -60 c29 -33
69 -68 88 -77 39 -18 136 -22 136 -5 0 14 -101 139 -112 139 -5 0 -31 35 -59
77 -49 76 -50 79 -44 134 l7 57 -43 23 c-29 16 -50 38 -65 69 -22 43 -76 192
-71 195 1 1 13 9 27 18 28 19 76 22 116 7 15 -6 36 -7 48 -4 17 6 13 9 -27 21
-26 7 -47 17 -47 21 1 4 9 17 19 29 16 20 23 21 55 12 38 -10 133 -8 106 3 -8
3 -43 11 -78 17 -63 12 -63 12 -90 -16 -68 -72 -149 -62 -251 33 -105 97 -168
255 -157 391 6 77 -6 104 -23 51 -38 -122 -50 -433 -19 -516 l16 -44 -25 24
c-54 50 -134 227 -173 379 -46 178 -67 459 -52 685 9 134 11 143 40 183 17 23
33 42 36 41 4 0 20 7 37 16 52 26 55 19 62 -133 14 -319 77 -538 255 -891 82
-163 140 -252 164 -252 6 0 4 8 -4 18 -38 42 -109 194 -133 282 -84 316 -80
810 11 1345 25 145 93 424 152 630 68 237 211 585 265 646 26 30 35 59 19 59
-11 0 -154 -163 -221 -251 -235 -311 -418 -744 -481 -1139 -11 -68 -17 -80
-55 -121 -23 -25 -58 -50 -78 -56 -35 -11 -37 -10 -32 10 2 12 16 90 31 172
68 387 163 670 315 949 135 247 250 395 344 444 22 12 36 21 32 22 -27 1 -104
-54 -177 -129 -163 -165 -351 -530 -449 -872 -38 -133 -85 -343 -107 -486
l-18 -113 -45 0 c-58 0 -128 -32 -142 -64 -10 -21 -8 -34 15 -79 34 -70 92
-130 120 -125 21 4 21 4 17 -210 -6 -403 45 -667 171 -879 43 -72 148 -178
169 -171 8 3 6 10 -6 21 -42 42 -58 115 -63 277 -4 157 2 178 27 90 8 -25 28
-74 45 -110 37 -74 75 -232 57 -238 -16 -5 -13 -22 4 -22 8 0 19 -17 25 -42
31 -120 125 -409 160 -490 22 -51 37 -94 35 -96 -5 -6 -96 62 -143 106 -19 18
-55 79 -89 149 -31 65 -58 120 -59 122 -2 2 -9 -1 -17 -7 -10 -8 -18 -1 -37
34 -32 61 -142 159 -200 179 -25 9 -73 19 -107 22 l-62 6 -12 73 c-6 41 -22
95 -35 121 l-24 48 5 -70 c3 -38 8 -95 11 -126 6 -53 5 -57 -16 -64 -28 -9
-34 0 -60 85 -37 123 -70 328 -70 435 0 35 0 35 28 22 45 -23 54 -8 16 25 -43
38 -57 63 -49 88 4 13 15 20 33 20 l27 0 -24 19 c-36 28 -18 41 55 41 62 0 64
-1 64 -25 0 -35 -22 -84 -54 -122 -25 -29 -26 -33 -9 -33 30 0 59 34 78 89 21
63 17 92 -15 108 -30 15 -116 17 -125 3 -3 -5 -11 -10 -17 -10 -15 0 -4 262
17 425 54 422 222 1012 393 1380 51 109 139 274 187 350 10 17 14 26 8 20 -31
-28 -144 -218 -214 -360 -43 -88 -79 -156 -79 -152 0 11 59 153 103 247 20 42
47 88 61 103 25 27 34 57 18 57 -11 0 -154 -163 -220 -250 -240 -318 -403
-705 -483 -1145 -18 -95 -23 -168 -26 -355 -2 -129 -6 -267 -9 -307 -6 -69 -5
-73 22 -100 21 -21 37 -57 61 -139 17 -61 29 -121 27 -132 -4 -13 1 -25 15
-34 29 -21 39 -56 51 -193 6 -66 15 -146 21 -179 10 -58 10 -59 -23 -95 -18
-19 -36 -38 -40 -41 -23 -18 -71 -172 -76 -239 -4 -68 -8 -77 -38 -108 -20
-20 -38 -51 -45 -78 -11 -43 -12 -44 -93 -76 -44 -18 -107 -45 -138 -61 -32
-15 -60 -28 -63 -28 -10 0 -5 87 15 235 10 82 18 150 16 152 -4 4 -93 -302
-111 -382 -15 -67 -20 -74 -98 -152 -45 -46 -86 -83 -92 -83 -5 -1 -32 -16
-60 -35 -35 -24 -52 -30 -56 -22 -4 7 -13 57 -19 112 -29 243 33 576 141 757
36 61 207 315 229 341 4 5 19 -12 34 -37 37 -63 62 -68 102 -22 17 20 35 36
41 36 5 0 14 5 21 12 7 7 30 11 51 9 58 -4 81 12 81 57 0 48 -33 102 -61 102
-13 0 -42 -21 -71 -50 -47 -48 -51 -50 -104 -50 l-55 0 38 58 c56 87 95 161
91 173 -2 6 -24 -24 -50 -67 -25 -44 -117 -180 -204 -304 -163 -233 -269 -393
-344 -518 -23 -40 -45 -71 -47 -69 -2 3 3 35 12 72 8 37 14 70 11 72 -16 17
-77 -236 -102 -424 -20 -160 -16 -383 10 -452 19 -51 20 -61 6 -61 -16 0 -78
135 -91 198 -11 53 -8 134 8 290 12 110 -14 91 -36 -27 -7 -35 -26 -100 -42
-145 -17 -45 -41 -124 -54 -176 -20 -80 -23 -106 -16 -165 5 -38 14 -83 20
-99 17 -42 5 -44 -33 -7 -47 45 -79 109 -113 221 -25 86 -28 108 -27 240 1
240 41 390 222 831 103 251 181 460 202 539 7 25 27 82 46 128 37 90 41 106
20 76 -12 -15 -11 -2 4 56 10 41 49 217 85 390 103 488 149 670 271 1067 68
221 200 500 327 688 139 206 333 424 470 528 55 42 64 53 47 55 -43 7 -200
-124 -327 -272 -80 -94 -103 -114 -162 -143 -292 -146 -498 -529 -600 -1117
-30 -172 -58 -437 -81 -759 -17 -252 -24 -306 -54 -430 -67 -278 -112 -409
-281 -822 -168 -412 -202 -534 -212 -760 -6 -155 2 -227 43 -357 36 -114 74
-170 142 -212 68 -42 82 -32 49 35 -19 38 -22 60 -22 169 0 111 4 134 29 210
l29 85 13 -75 c7 -41 25 -105 40 -143 l26 -68 -27 -121 c-27 -121 -65 -227
-93 -260 -8 -10 -17 -41 -20 -70 -4 -44 -16 -69 -72 -153 -37 -55 -117 -185
-179 -289 l-111 -189 0 -109 0 -108 2550 0 c1403 0 2550 2 2550 4 0 2 -9 47
-20 99 -13 64 -43 149 -91 262 -64 148 -70 168 -56 177 10 5 17 21 17 38 0 36
-41 180 -77 273 -14 37 -24 68 -22 70 2 1 22 11 44 22 62 30 165 140 207 220
56 107 76 178 89 320 18 201 -1 396 -79 812 l-28 153 32 31 32 31 4 -28 c4
-37 18 -35 100 15 62 37 63 39 90 117 54 159 69 262 76 504 5 218 6 223 18
155 40 -235 43 -549 5 -700 -11 -43 -19 -81 -17 -83 2 -2 29 43 60 100 123
230 146 535 71 945 -104 565 -408 1275 -756 1765 -209 294 -582 678 -658 678
-14 0 -21 -4 -15 -8z m-2722 -454 c-5 -7 -33 -51 -64 -98 -92 -138 -222 -367
-220 -385 1 -3 -26 -75 -59 -160 -59 -151 -189 -574 -210 -685 -6 -30 -35
-165 -65 -300 -60 -269 -66 -267 -41 15 74 860 265 1368 595 1583 71 46 75 48
64 30z m1388 -40 c-15 -19 -114 -268 -150 -378 -110 -337 -197 -726 -238
-1065 -14 -116 -19 -224 -19 -475 0 -317 7 -402 41 -535 11 -42 -26 31 -65
131 -104 262 -150 477 -151 702 l0 102 48 0 c39 1 50 5 67 28 22 30 24 79 5
146 -16 59 -45 89 -77 83 -25 -5 -25 -4 -19 49 17 149 119 483 206 675 80 177
238 434 328 531 25 27 46 32 24 6z m-751 -345 c-86 -170 -243 -690 -301 -993
-53 -279 -90 -585 -90 -747 0 -40 -3 -73 -7 -73 -5 0 -9 14 -9 32 -2 37 -46
81 -101 99 l-33 11 0 171 c0 267 38 479 136 770 60 177 162 397 244 522 61 92
170 245 176 245 3 0 -4 -17 -15 -37z m259 -975 c13 -28 20 -66 20 -105 0 -58
-2 -63 -24 -69 -14 -3 -48 -2 -77 3 -53 8 -53 8 -72 61 l-19 54 29 30 c29 31
88 67 111 68 7 0 22 -19 32 -42z m-259 -94 c12 -15 11 -19 -9 -32 -12 -8 -22
-21 -22 -30 0 -13 2 -13 18 1 24 22 29 21 42 -3 11 -21 8 -26 -64 -107 -21
-24 -43 -43 -48 -43 -17 0 -70 65 -94 115 -20 43 -22 52 -10 70 27 41 160 62
187 29z m88 -27 c12 -33 12 -40 0 -48 -23 -14 -27 -11 -47 34 -22 48 -19 59
11 55 14 -2 26 -16 36 -41z m-586 -618 c41 -21 67 -52 67 -80 0 -23 -5 -28
-27 -31 -27 -4 -27 -5 -7 -14 34 -15 15 -48 -37 -63 -39 -12 -44 -11 -57 6
-25 33 0 193 30 193 5 0 19 -5 31 -11z m2627 -7 c0 -28 -44 -65 -68 -58 -32
10 -58 44 -44 58 9 9 18 8 38 -2 23 -13 27 -12 35 3 13 23 39 22 39 -1z m1247
-54 c-3 -8 -6 -5 -6 6 -1 11 2 17 5 13 3 -3 4 -12 1 -19z m-600 -140 c-4 -79
-12 -181 -17 -228 -34 -279 -132 -607 -214 -715 l-24 -31 62 -2 c53 -2 67 1
102 25 48 33 89 78 137 153 19 30 46 66 60 78 l25 24 -9 -41 c-10 -46 -3 -91
15 -91 6 0 32 11 58 24 42 20 48 21 52 7 10 -34 76 -427 75 -446 -1 -11 4 -67
11 -125 21 -171 17 -389 -9 -493 -22 -92 -64 -188 -109 -247 -50 -66 -176
-179 -187 -168 -3 2 11 33 29 69 74 139 91 288 61 539 -24 203 -90 538 -104
525 -3 -4 -9 -102 -13 -218 -7 -223 -22 -317 -70 -430 -27 -65 -97 -174 -131
-205 -24 -23 -26 -23 -51 -7 -14 10 -26 18 -26 20 0 1 11 23 25 48 35 61 72
173 92 276 17 90 24 306 10 354 -14 50 -27 28 -27 -45 0 -144 -64 -327 -160
-460 -37 -52 -70 -75 -70 -48 0 5 -27 38 -60 73 l-60 64 15 77 c17 89 35 343
35 498 l0 107 103 89 c172 150 245 242 271 343 7 30 17 129 21 220 10 252 22
355 52 447 15 45 29 82 32 82 2 0 1 -64 -2 -142z m-3142 62 c12 -19 -22 -59
-45 -53 -23 6 -23 4 -10 37 10 27 43 36 55 16z m-56 -85 c28 -14 28 -15 34
-142 6 -112 17 -201 33 -268 23 -94 -94 212 -127 330 l-21 78 23 18 c13 10 26
14 27 8 2 -5 16 -16 31 -24z m3106 -112 c-3 -38 -10 -154 -15 -259 -11 -223
-22 -264 -100 -361 -46 -57 -247 -242 -274 -252 -6 -2 -16 -12 -23 -21 -18
-25 -343 -245 -382 -258 -38 -13 -125 -15 -156 -3 -16 6 -10 9 25 15 54 8 60
12 232 142 73 55 160 120 193 144 79 58 244 200 290 251 20 23 53 75 73 117
35 73 36 77 38 216 2 78 8 156 13 175 9 30 81 160 89 161 2 0 1 -30 -3 -67z
m-3336 -227 c7 -8 15 -31 18 -51 7 -44 -5 -55 -58 -55 -29 0 -38 5 -48 27 -11
24 -9 29 20 60 36 36 50 40 68 19z m-102 -92 c8 -22 -15 -43 -27 -24 -5 8 -10
21 -10 28 0 17 30 15 37 -4z m-60 -10 c2 -7 -2 -11 -9 -10 -7 0 -14 -3 -15 -9
-1 -5 7 -9 17 -7 26 4 26 -20 0 -43 -24 -22 -45 -14 -65 25 -23 45 -13 62 32
58 20 -2 38 -8 40 -14z m492 -116 l52 -97 -30 -15 c-58 -31 -62 -25 -76 104
-3 30 -8 71 -11 90 -7 48 3 34 65 -82z m741 48 c0 -6 -5 -18 -10 -26 -9 -13
-11 -13 -20 0 -5 8 -10 20 -10 27 0 6 -3 19 -7 28 -6 16 -4 16 20 0 15 -9 27
-22 27 -29z m88 -23 c12 -3 22 -9 22 -13 0 -7 -111 -42 -116 -37 -2 1 6 17 18
35 15 24 25 31 37 26 9 -3 26 -9 39 -11z m16 -140 c87 -236 167 -380 277 -498
88 -96 89 -107 8 -85 -62 17 -158 135 -252 310 -49 91 -137 299 -137 324 0 13
19 21 60 25 11 1 25 -24 44 -76z m-517 -3 c84 -38 131 -78 174 -150 42 -71 89
-201 89 -245 0 -14 5 -25 10 -25 6 0 10 8 10 18 1 27 36 -24 55 -77 21 -61 18
-74 -6 -28 -27 51 -32 43 -13 -18 31 -101 -5 -235 -84 -312 -78 -76 -180 -116
-329 -128 -217 -18 -409 75 -443 214 -7 30 -10 81 -7 117 2 35 1 64 -4 64 -14
0 -30 -78 -24 -118 5 -33 4 -34 -6 -12 -6 15 -8 47 -4 80 8 60 34 132 42 113
3 -7 11 -13 20 -13 11 0 13 7 9 28 -10 43 12 215 35 276 29 80 78 147 124 173
108 62 268 81 352 43z m470 -192 c-3 -8 -6 -5 -6 6 -1 11 2 17 5 13 3 -3 4
-12 1 -19z m190 -33 c9 -25 -4 -29 -17 -6 -7 15 -7 21 0 21 6 0 13 -7 17 -15z
m-1961 -154 c-37 -137 -49 -262 -44 -439 6 -191 -3 -235 -63 -319 -24 -34 -47
-62 -51 -62 -3 -1 -12 22 -18 50 -14 56 -12 91 19 329 10 85 22 187 26 227 6
66 13 83 78 192 39 66 72 119 74 117 2 -2 -8 -44 -21 -95z m1837 -11 c-3 -12
-8 -19 -11 -16 -5 6 5 36 12 36 2 0 2 -9 -1 -20z m1732 -47 c-3 -38 -7 -135
-9 -218 -5 -149 -22 -308 -35 -333 -5 -9 -22 -2 -62 26 l-54 38 4 105 c4 115
-4 126 -19 28 -6 -35 -13 -74 -15 -87 l-6 -23 -39 31 c-32 25 -41 40 -50 87
-7 30 -21 81 -31 111 -11 31 -18 61 -15 67 2 6 72 57 155 114 83 57 154 107
157 112 15 25 22 2 19 -58z m-1708 0 c-3 -10 -5 -4 -5 12 0 17 2 24 5 18 2 -7
2 -21 0 -30z m43 12 c0 -19 -29 -90 -34 -84 -7 7 17 99 26 99 4 0 8 -7 8 -15z
m666 -58 c4 -4 -1 -7 -12 -7 -18 0 -84 35 -84 44 0 5 87 -28 96 -37z m-783
-71 c40 -30 16 -104 -72 -221 -64 -85 -75 -95 -127 -115 -68 -25 -105 -19 -58
9 63 38 150 161 204 289 24 56 26 58 53 38z m-126 -18 c-3 -8 -6 -5 -6 6 -1
11 2 17 5 13 3 -3 4 -12 1 -19z m2463 -133 c50 -264 64 -549 31 -676 -18 -70
-65 -170 -79 -169 -4 1 -28 29 -54 63 -26 35 -70 81 -97 103 -45 35 -64 64
-43 64 16 0 95 115 128 185 61 132 100 344 87 484 -3 36 -3 64 0 61 3 -3 15
-54 27 -115z m-893 14 c37 -117 29 -120 -68 -24 -85 84 -86 85 -55 86 17 1 42
5 56 9 14 4 29 7 35 6 5 -2 20 -36 32 -77z m658 -245 c-26 -148 -96 -334 -127
-334 -5 0 -23 14 -40 30 l-30 31 26 32 c55 68 127 194 153 268 15 43 29 76 31
74 2 -1 -4 -47 -13 -101z m-1228 -101 c7 -22 -17 -29 -99 -25 l-88 4 0 65 0
64 92 -50 c51 -27 94 -53 95 -58z m-2877 -273 c-17 -41 -33 -49 -24 -13 13 60
16 65 26 55 8 -8 7 -20 -2 -42z m2449 -202 c5 -18 21 -76 35 -128 14 -52 34
-122 46 -154 11 -33 18 -61 16 -63 -6 -7 -176 205 -176 220 0 11 22 82 45 145
8 22 23 13 34 -20z m-2136 -524 c76 -5 86 -50 26 -119 l-31 -35 29 0 c32 0 76
-26 68 -40 -3 -5 -21 -2 -40 6 -19 8 -49 14 -66 14 l-32 0 6 -47 c3 -27 9 -56
12 -66 5 -11 2 -17 -8 -17 -21 0 -27 29 -34 167 -6 124 -2 160 18 147 6 -3 29
-8 52 -10z m-445 -34 c52 -32 75 -101 50 -155 -18 -40 -27 -29 -21 28 5 47 2
56 -21 84 -33 39 -73 49 -118 30 -52 -22 -78 -65 -78 -129 0 -74 18 -98 76
-98 35 0 51 6 71 26 24 24 24 26 7 39 -12 8 -23 10 -28 4 -16 -15 -44 -10 -50
9 -10 29 18 97 39 97 13 0 21 -12 29 -45 9 -35 16 -46 34 -48 27 -4 28 -16 1
-53 -45 -63 -119 -77 -170 -31 -43 39 -51 107 -19 174 39 83 125 112 198 68z
m1001 -60 c12 -60 35 -120 46 -120 3 0 24 41 47 90 24 54 47 90 55 90 9 0 13
-6 10 -12 -39 -90 -102 -225 -108 -233 -5 -5 -9 0 -9 12 0 12 -5 25 -11 29
-27 16 -78 192 -63 216 10 16 20 -4 33 -72z m-735 49 c6 -6 1 -27 -13 -55
l-22 -47 31 -28 c17 -16 28 -34 25 -40 -5 -7 -18 0 -36 17 l-29 28 -27 -27
c-15 -14 -24 -29 -20 -33 3 -4 38 -9 77 -12 46 -3 69 -9 67 -16 -6 -15 -119
-10 -162 8 -35 15 -47 36 -21 36 14 0 56 45 56 59 0 4 -16 15 -35 24 -19 9
-35 21 -35 27 0 16 19 12 56 -10 l33 -21 15 30 c9 17 16 32 16 34 0 3 -30 8
-67 12 -73 8 -86 12 -78 24 6 11 157 1 169 -10z m409 -4 c-3 -8 -9 -15 -13
-15 -4 0 -18 -23 -30 -52 -21 -49 -21 -52 -4 -65 10 -7 21 -13 25 -13 4 0 11
-9 14 -20 16 -50 -29 -87 -66 -54 -36 33 -18 136 38 212 24 31 48 36 36 7z
m217 -10 c58 -30 52 -98 -16 -162 -51 -50 -71 -53 -113 -17 -39 32 -49 80 -26
127 28 59 97 82 155 52z"/>
<path d="M2164 4085 c-10 -8 -14 -15 -7 -15 19 0 43 11 43 21 0 13 -14 11 -36
-6z"/>
<path d="M1982 2338 c-13 -13 -15 -37 -6 -62 6 -15 7 -15 19 0 6 9 17 14 23
10 18 -11 14 -34 -5 -40 -11 -3 -7 -4 7 -3 22 2 25 7 28 42 5 53 -35 84 -66
53z m29 -23 c-1 -15 -24 -12 -29 3 -3 9 2 13 12 10 10 -1 17 -7 17 -13z"/>
<path d="M1732 2294 c-36 -25 -27 -94 12 -94 31 0 46 19 46 57 0 41 -27 59
-58 37z m36 -16 c-6 -18 -28 -21 -28 -4 0 9 7 16 16 16 9 0 14 -5 12 -12z m0
-45 c-5 -25 -28 -28 -28 -4 0 12 6 21 16 21 9 0 14 -7 12 -17z"/>
<path d="M1860 2260 c-16 -38 -10 -44 35 -36 41 8 43 15 12 44 -30 28 -32 28
-47 -8z"/>
<path d="M797 454 c-11 -11 -8 -114 3 -114 5 0 25 16 45 36 47 47 45 78 -5 82
-20 2 -39 0 -43 -4z"/>
<path d="M317 347 c-4 -10 -7 -28 -7 -40 1 -20 2 -20 11 -4 6 10 9 28 7 40 -3
20 -4 20 -11 4z"/>
<path d="M1000 272 c0 -22 13 -42 27 -42 21 0 12 44 -9 48 -10 2 -18 -1 -18
-6z"/>
<path d="M1184 395 c-12 -8 -27 -27 -33 -44 -26 -62 38 -122 92 -86 50 32 74
91 50 124 -17 25 -78 29 -109 6z"/>
<path d="M2419 5623 l-34 -38 38 34 c20 19 37 36 37 38 0 8 -8 0 -41 -34z"/>
<path d="M3086 5216 c-47 -50 -104 -73 -136 -56 -11 6 -40 10 -63 8 -41 -3
-42 -4 -45 -41 -5 -54 38 -144 72 -153 31 -7 71 16 81 46 4 12 15 20 30 20 12
0 33 8 45 18 21 17 26 17 66 3 55 -20 78 -8 82 40 7 67 -37 159 -77 159 -8 0
-33 -20 -55 -44z m95 -31 c11 -25 19 -58 17 -73 -3 -23 -8 -27 -38 -30 -49 -3
-69 11 -52 38 7 11 8 20 2 20 -5 0 -14 9 -20 20 -9 17 -6 24 16 45 38 35 52
31 75 -20z m-222 -51 c16 -12 20 -19 12 -27 -16 -16 -14 -30 3 -24 8 3 17 -1
20 -9 12 -31 -40 -80 -74 -69 -19 6 -60 90 -60 124 0 18 6 21 38 21 21 0 48
-7 61 -16z m119 -16 c-2 -27 -8 -34 -29 -36 -19 -2 -29 4 -39 23 -12 23 -12
28 0 35 8 6 28 10 43 10 26 0 28 -3 25 -32z"/>
<path d="M4978 4333 c-21 -8 -38 -22 -38 -30 0 -11 5 -13 18 -7 9 4 40 8 67 9
l50 0 3 -40 c5 -54 -16 -145 -33 -145 -7 0 -27 14 -44 31 -25 25 -31 27 -31
12 0 -49 67 -108 99 -89 18 11 41 107 41 167 0 90 -51 125 -132 92z"/>
<path d="M1112 4275 c-15 -32 -16 -130 -2 -156 12 -22 46 -25 85 -7 27 12 36
34 9 24 -47 -18 -63 -17 -73 2 -16 29 -14 105 3 127 14 19 15 19 51 2 34 -16
36 -19 34 -62 -5 -87 52 -97 85 -15 17 42 53 67 80 57 12 -5 16 -21 16 -66 0
-33 -4 -62 -9 -66 -5 -3 -26 4 -46 16 -46 28 -55 19 -15 -15 35 -29 75 -34 84
-10 13 34 6 142 -10 158 -14 14 -19 14 -52 -1 -49 -22 -83 -19 -135 12 -57 33
-90 33 -105 0z m174 -59 c7 -19 -13 -56 -31 -56 -10 0 -15 11 -15 35 0 29 4
35 20 35 11 0 23 -6 26 -14z"/>
<path d="M1175 4209 c-4 -6 -5 -12 -2 -15 7 -7 37 7 37 17 0 13 -27 11 -35 -2z"/>
<path d="M1320 4179 c0 -5 5 -7 10 -4 6 3 10 8 10 11 0 2 -4 4 -10 4 -5 0 -10
-5 -10 -11z"/>
<path d="M4205 4053 c-59 -21 -136 -65 -155 -88 -7 -9 11 0 40 20 80 54 144
69 275 63 77 -4 103 -3 85 4 -50 20 -191 20 -245 1z"/>
<path d="M2884 3556 c-61 -27 -66 -118 -7 -132 48 -13 113 36 113 85 0 20 -44
61 -64 61 -6 -1 -25 -7 -42 -14z m84 -48 c6 -51 -71 -91 -106 -56 -36 36 7 91
68 86 30 -3 35 -7 38 -30z"/>
<path d="M3320 3488 c0 -4 14 -8 30 -8 17 0 30 2 30 4 0 2 -13 6 -30 8 -16 3
-30 1 -30 -4z"/>
<path d="M3111 3479 c-40 -16 -20 -17 54 -4 70 13 70 13 20 13 -27 1 -61 -4
-74 -9z"/>
<path d="M4895 3399 c-25 -48 -32 -162 -11 -194 20 -31 35 -31 71 -3 19 15 43
22 71 23 38 0 43 -3 48 -27 7 -35 41 -55 63 -36 45 37 72 178 37 192 -25 10
-72 7 -79 -5 -4 -6 -19 -7 -38 -3 -18 4 -38 7 -45 7 -7 0 -20 13 -28 28 -14
28 -42 49 -63 49 -6 0 -18 -14 -26 -31z m82 -47 c15 -35 9 -57 -13 -48 -7 3
-16 1 -19 -5 -4 -5 1 -12 9 -15 24 -9 19 -41 -9 -60 -39 -26 -48 -10 -43 77 7
115 39 137 75 51z m191 -49 c3 -34 -30 -123 -47 -123 -5 0 -17 21 -27 46 -18
46 -18 46 6 64 17 13 20 19 9 23 -12 5 -12 7 1 16 28 21 55 9 58 -26z m-103
17 c4 -6 4 -24 0 -40 -5 -23 -12 -30 -31 -30 -25 0 -29 14 -18 58 7 23 38 30
49 12z"/>
<path d="M3190 3395 c-222 -26 -482 -127 -627 -245 -78 -63 -85 -86 -47 -142
36 -51 154 -171 162 -164 3 4 15 -1 28 -9 22 -14 22 -14 7 15 -52 105 -81 185
-71 197 19 23 35 14 47 -26 6 -22 20 -58 30 -80 l18 -41 11 25 c7 14 12 45 12
68 0 29 7 50 23 69 19 23 30 27 94 30 69 3 71 3 62 -17 -10 -20 -10 -20 5 -1
9 11 16 25 16 31 0 6 17 28 38 48 32 31 45 37 81 37 39 0 49 -5 94 -50 44 -44
67 -60 67 -45 0 12 -53 143 -66 163 -9 13 -14 25 -12 26 8 6 128 35 170 41 82
12 89 55 13 74 -24 6 -45 10 -47 10 -2 -1 -50 -7 -108 -14z"/>
<path d="M2960 3070 c-18 -43 -7 -47 13 -5 9 19 13 35 8 35 -5 0 -14 -14 -21
-30z"/>
<path d="M4016 3090 c13 -13 154 -26 154 -14 0 5 -25 10 -56 11 -31 1 -68 4
-82 8 -20 5 -24 3 -16 -5z"/>
<path d="M4080 2820 c0 -5 5 -10 11 -10 5 0 7 5 4 10 -3 6 -8 10 -11 10 -2 0
-4 -4 -4 -10z"/>
<path d="M3805 2395 c-33 -18 -85 -64 -85 -76 0 -5 11 3 25 16 29 30 69 32 88
5 12 -18 15 -18 20 -5 4 8 1 15 -6 16 -7 0 -2 4 11 10 28 11 26 43 -3 47 -11
1 -33 -5 -50 -13z"/>
<path d="M3194 2007 c21 -19 53 -42 70 -52 44 -25 31 -14 -44 40 -46 33 -54
36 -26 12z"/>
</g>
</svg>
